<?xml version="1.0" standalone="no"?>
<!DOCTYPE svg PUBLIC "-//W3C//DTD SVG 20010904//EN"
 "http://www.w3.org/TR/2001/REC-SVG-20010904/DTD/svg10.dtd">
<svg version="1.0" xmlns="http://www.w3.org/2000/svg"
 width="372.000000pt" height="640.000000pt" viewBox="0 0 372.000000 640.000000"
 preserveAspectRatio="xMidYMid meet">

<g transform="translate(0.000000,640.000000) scale(0.100000,-0.100000)"
fill="#053ea8" stroke="none">
<path d="M1710 6394 c-108 -10 -269 -35 -377 -60 -186 -41 -453 -133 -453
-156 0 -5 7 -23 16 -39 18 -36 9 -37 162 26 63 26 117 43 122 39 4 -5 13 -27
20 -48 11 -33 10 -40 -3 -48 -13 -7 -14 -14 -5 -41 6 -17 14 -36 19 -41 4 -5
42 1 88 14 45 13 83 22 85 19 2 -2 15 -44 29 -94 14 -49 30 -89 36 -88 62 14
192 33 226 33 40 0 43 -2 49 -31 13 -65 14 -65 -88 -78 -82 -11 -284 -56 -294
-65 -5 -6 20 -86 27 -86 4 0 49 11 101 24 186 47 377 58 553 31 93 -14 204
-39 213 -48 4 -4 -26 -97 -31 -97 -2 0 -43 10 -92 22 -76 19 -115 23 -283 23
-203 0 -268 -9 -415 -56 -74 -25 -255 -110 -255 -120 0 -5 20 -42 45 -82 25
-41 45 -78 45 -83 0 -5 -30 -29 -67 -54 -91 -61 -211 -184 -276 -282 -59 -90
-107 -179 -107 -201 0 -8 36 -27 86 -46 79 -30 85 -34 82 -59 -2 -21 2 -27 22
-33 52 -15 60 -11 82 39 54 124 165 260 273 337 115 82 219 124 367 148 l73
13 3 43 3 44 -74 -6 c-126 -11 -292 -72 -407 -150 -67 -46 -176 -154 -227
-225 l-45 -63 -26 17 c-69 44 -68 34 -4 120 77 104 180 200 283 263 45 28 86
52 92 54 5 1 -7 43 -27 91 -21 49 -33 93 -29 97 15 15 148 61 233 80 123 28
320 35 448 15 108 -16 243 -57 333 -100 56 -28 55 -28 84 26 14 25 13 27 -20
47 l-35 21 15 37 c9 21 20 42 24 46 18 18 208 -96 332 -199 181 -150 354 -404
424 -622 l17 -54 37 7 c20 4 40 10 45 15 5 5 -1 35 -14 72 -169 461 -536 813
-988 947 -107 32 -278 61 -356 61 l-46 0 0 55 c0 40 4 55 14 55 7 0 16 14 20
31 12 61 16 59 -111 58 -65 0 -143 -4 -173 -8 -30 -5 -56 -7 -58 -6 -1 1 -10
45 -19 96 -8 52 -16 95 -17 96 -1 1 -32 -5 -70 -13 -54 -11 -71 -12 -77 -2
-13 20 -21 80 -12 88 4 5 67 19 138 31 109 20 165 23 347 23 136 0 221 -3 228
-10 6 -6 8 -29 4 -55 l-6 -45 -188 4 c-104 3 -203 2 -222 -2 -34 -6 -34 -7
-29 -48 l6 -41 190 -2 c177 -2 325 -16 355 -35 9 -6 11 -21 6 -55 -7 -47 -8
-47 -39 -41 -18 4 -58 9 -89 13 l-58 6 0 -45 0 -45 103 -17 c221 -39 475 -144
655 -273 90 -64 229 -192 306 -281 l37 -43 107 83 c59 46 108 91 110 100 5 25
-219 250 -332 334 -56 41 -113 85 -129 97 l-28 22 26 42 26 43 61 -39 c34 -22
106 -77 161 -123 55 -45 106 -87 113 -93 10 -7 24 0 51 28 l38 37 -60 60 c-33
34 -66 58 -73 55 -7 -3 -55 25 -105 61 -98 70 -268 174 -286 174 -5 0 -29 -36
-52 -80 -22 -44 -47 -80 -54 -80 -7 0 -43 14 -81 31 -114 52 -113 52 -123 26
-25 -65 -24 -67 11 -79 75 -25 309 -152 393 -213 101 -73 275 -230 274 -248 0
-7 -16 -25 -35 -41 l-34 -28 -85 80 c-174 165 -375 287 -612 372 -35 13 -63
23 -63 24 0 1 13 44 29 95 20 64 26 94 18 96 -7 2 -38 11 -70 19 -33 8 -61 17
-64 20 -3 3 -2 26 1 51 6 34 12 45 25 45 25 0 199 -51 297 -88 l81 -30 17 35
c9 18 16 38 16 42 0 11 -125 60 -243 95 -179 55 -270 68 -477 71 -107 1 -215
1 -240 -1z"/>
<path d="M680 6074 c-146 -97 -283 -209 -343 -280 -61 -72 -167 -225 -167
-240 0 -5 10 -15 22 -23 20 -12 24 -10 57 30 87 108 312 324 378 362 6 4 24
-9 42 -32 l31 -39 -86 -72 -86 -73 44 -46 c24 -25 54 -58 67 -73 l24 -27 -85
-89 c-107 -113 -246 -319 -308 -459 -50 -112 -87 -219 -79 -227 3 -3 23 -8 44
-11 l40 -7 29 84 c115 322 352 621 646 810 82 53 80 53 116 -14 14 -28 14 -28
-43 -65 -178 -112 -351 -281 -457 -445 l-17 -27 78 -52 c43 -28 79 -53 81 -54
2 -2 -17 -43 -42 -91 -49 -98 -86 -187 -86 -209 0 -15 70 -39 81 -27 4 4 21
44 39 89 60 157 199 349 335 463 41 35 75 65 75 68 0 2 -9 20 -21 38 -15 25
-25 32 -35 26 -38 -21 -164 -137 -214 -196 -30 -36 -59 -66 -65 -66 -5 0 -25
13 -44 29 l-35 29 19 28 c30 46 194 205 270 262 39 28 118 76 177 107 l106 55
-34 85 c-19 47 -34 88 -34 93 0 5 29 19 65 31 69 24 72 29 54 80 -14 39 -16
39 -166 -25 -123 -52 -162 -74 -286 -157 -49 -32 -90 -57 -91 -55 -1 2 -14 18
-29 36 -15 19 -27 37 -27 42 0 14 191 136 290 185 52 26 96 48 98 50 4 3 -20
69 -28 79 -5 4 -61 -19 -126 -53 -65 -34 -121 -58 -124 -54 -4 5 -17 25 -29
45 l-22 37 21 11 20 11 -20 39 c-11 22 -24 40 -28 40 -4 0 -46 -25 -92 -56z"/>
<path d="M3333 5709 l-31 -32 59 -70 c88 -104 196 -268 256 -386 29 -57 53
-99 53 -93 0 6 -16 59 -35 118 -59 181 -174 401 -242 466 l-29 28 -31 -31z"/>
<path d="M400 5573 c-117 -127 -212 -272 -302 -461 -44 -92 -63 -122 -76 -120
-15 3 -17 -9 -20 -79 -3 -79 -2 -83 20 -87 59 -13 57 -15 87 69 81 229 193
424 347 601 l63 71 -33 32 -33 32 -53 -58z"/>
<path d="M87 5373 c-15 -42 -26 -78 -23 -80 2 -2 21 27 44 64 29 49 37 71 30
81 -18 21 -24 14 -51 -65z"/>
<path d="M1665 5404 c-11 -2 -62 -14 -112 -25 -51 -11 -93 -24 -93 -28 0 -11
29 -81 34 -81 1 0 38 9 82 21 48 12 128 23 202 26 l124 6 -4 -99 -3 -100 99
-21 c103 -23 213 -69 293 -124 61 -42 163 -138 163 -154 0 -7 -16 -25 -36 -40
l-36 -27 -56 53 c-40 39 -50 46 -37 24 37 -59 54 -98 66 -154 7 -31 14 -57 15
-59 2 -3 255 106 262 112 7 8 -90 140 -147 199 -108 113 -227 188 -374 237
-47 15 -67 26 -63 35 3 8 8 30 12 49 3 20 12 36 20 36 20 0 152 -49 209 -78
28 -13 83 -47 124 -75 l73 -51 67 73 66 74 95 -100 c52 -55 103 -114 112 -131
l18 -30 -40 -26 c-22 -14 -42 -26 -44 -26 -3 0 -20 20 -39 44 -19 25 -48 61
-66 82 l-32 36 -30 -28 c-16 -15 -29 -32 -29 -36 0 -5 22 -35 48 -67 95 -113
160 -246 203 -409 27 -103 35 -309 16 -415 -16 -91 -21 -84 88 -112 39 -10 73
-21 78 -25 12 -10 -40 -157 -84 -238 -45 -85 -96 -163 -136 -210 l-28 -32 -38
32 -38 33 57 80 c58 82 146 253 138 267 -4 7 -76 30 -80 25 0 -1 -23 -44 -49
-95 -61 -119 -164 -253 -249 -323 -72 -60 -206 -144 -247 -154 -23 -6 -28 -2
-44 36 -17 36 -17 43 -5 51 8 5 55 32 104 61 195 113 353 324 410 545 42 160
40 336 -6 490 -22 77 -29 82 -79 56 -22 -11 -29 -20 -24 -32 44 -115 57 -314
29 -450 -51 -248 -228 -468 -461 -574 -115 -52 -204 -70 -338 -70 -139 0 -235
21 -354 77 -41 20 -75 34 -76 33 -1 -2 -11 -16 -23 -32 -12 -16 -22 -33 -22
-38 0 -15 159 -85 245 -108 131 -34 289 -37 449 -7 5 1 21 -40 35 -90 17 -62
30 -93 39 -93 24 0 194 71 257 107 33 19 93 60 133 90 l73 56 35 -34 c19 -19
32 -40 29 -48 -4 -17 37 -71 54 -71 19 0 154 155 216 249 104 157 169 319 201
505 25 141 15 398 -21 534 -25 97 -51 172 -59 172 -14 0 -76 -32 -76 -39 0 -5
7 -28 16 -52 48 -135 79 -423 57 -539 -8 -44 -9 -45 -43 -42 -69 6 -65 -3 -62
157 4 194 -22 326 -102 515 -5 12 15 26 79 58 47 23 85 46 85 50 0 14 -81 144
-129 207 -25 33 -78 92 -117 131 -67 68 -187 164 -204 164 -5 0 -30 -35 -56
-77 -26 -43 -49 -80 -50 -82 -2 -2 -27 11 -57 28 -74 42 -185 87 -277 112 -58
16 -113 21 -245 24 -93 2 -179 2 -190 -1z"/>
<path d="M3359 5362 l-37 -28 40 -64 c21 -36 61 -109 89 -162 l49 -98 -40 -20
c-21 -11 -44 -20 -49 -20 -5 0 -39 57 -76 128 -36 70 -73 137 -83 150 l-17 22
-37 -26 -37 -27 25 -41 c90 -144 229 -493 210 -524 -3 -5 -44 -17 -91 -27 -47
-10 -87 -21 -90 -24 -2 -4 3 -49 11 -101 79 -530 -165 -1076 -617 -1376 -54
-36 -99 -69 -99 -73 0 -4 6 -16 14 -26 13 -18 17 -16 82 41 103 90 207 172
325 257 86 62 114 88 151 145 101 151 177 333 220 523 20 90 23 131 23 306 l0
201 29 6 c72 15 74 13 82 -71 4 -43 4 -135 1 -205 l-5 -126 39 -7 c22 -4 43
-4 47 0 13 12 14 318 2 414 -6 51 -24 145 -39 207 l-28 113 45 15 c24 9 48 13
52 11 18 -11 67 -252 85 -417 6 -55 8 -58 35 -58 35 0 37 8 46 163 5 87 4 121
-5 126 -6 4 -22 48 -36 97 -53 199 -131 385 -226 540 -29 46 -52 84 -53 84 0
0 -17 -13 -37 -28z"/>
<path d="M469 4969 c-20 -40 -89 -213 -89 -223 0 -10 83 -27 90 -19 4 4 17 37
30 73 12 36 34 87 47 114 l25 50 -28 23 c-40 32 -50 29 -75 -18z"/>
<path d="M1383 4861 c-66 -52 -127 -123 -174 -202 -21 -36 -39 -68 -39 -71 0
-8 81 -40 87 -34 3 3 12 33 20 67 19 83 65 171 120 230 25 27 43 49 40 49 -3
0 -27 -17 -54 -39z"/>
<path d="M2443 4535 c-18 -8 -33 -21 -33 -30 0 -9 -14 -21 -30 -27 -22 -7 -38
-25 -57 -62 -14 -28 -38 -69 -53 -91 -15 -22 -30 -58 -33 -80 -3 -22 -8 -54
-12 -71 -6 -28 -3 -33 28 -53 19 -11 37 -21 40 -21 11 0 36 100 43 166 l7 64
48 0 49 0 0 -58 c0 -32 -7 -85 -15 -117 -16 -62 -81 -205 -93 -205 -4 0 -43
22 -87 49 l-79 49 -53 -48 c-90 -83 -221 -129 -327 -116 -47 6 -55 4 -100 -28
l-49 -34 39 -12 c22 -6 71 -13 109 -17 39 -3 73 -11 77 -17 4 -6 8 -31 8 -55
l0 -43 -82 7 c-47 4 -119 19 -165 34 l-82 28 -30 -31 c-17 -18 -31 -35 -31
-38 0 -11 127 -57 203 -72 42 -9 107 -16 144 -16 63 1 197 21 208 32 3 2 -9
44 -25 93 -17 49 -30 90 -30 92 0 2 21 14 48 25 26 12 64 32 84 46 42 27 51
24 88 -28 l20 -27 -55 -37 c-30 -20 -55 -39 -55 -43 0 -20 26 -73 35 -73 26 0
134 81 195 147 175 188 231 403 173 666 -8 37 -20 67 -26 67 -7 -1 -27 -7 -44
-15z"/>
<path d="M3637 4198 c-4 -45 -5 -83 -3 -86 4 -4 32 87 42 138 6 25 3 30 -13
30 -18 0 -21 -9 -26 -82z"/>
<path d="M2061 4116 c-7 -8 -44 -36 -82 -62 -79 -54 -84 -69 -11 -29 51 28
120 90 110 100 -3 3 -11 -1 -17 -9z"/>
<path d="M3383 3877 c-17 -62 -49 -155 -71 -205 -22 -51 -37 -92 -33 -92 19 0
159 158 170 191 6 20 20 39 30 42 15 4 81 102 81 120 0 3 -13 8 -30 12 -16 4
-30 13 -30 20 0 16 -22 25 -59 25 -26 0 -28 -4 -58 -113z"/>
<path d="M1261 3404 c-12 -19 -21 -39 -21 -44 0 -15 182 -98 270 -123 119 -35
263 -51 383 -44 55 4 101 8 104 10 2 3 1 22 -3 45 l-6 40 -147 0 c-95 0 -171
5 -217 16 -91 20 -222 67 -290 105 l-52 30 -21 -35z"/>
<path d="M2500 3289 c-64 -43 -183 -102 -268 -133 -237 -85 -552 -90 -781 -11
-41 14 -81 25 -88 25 -7 0 -21 -16 -30 -36 -20 -42 -19 -43 75 -75 34 -11 62
-26 62 -32 0 -24 -21 -87 -29 -87 -16 0 -149 48 -214 78 l-68 31 22 43 c12 24
25 45 29 48 10 7 40 67 40 79 0 6 -13 17 -30 26 -30 15 -30 15 -45 -21 -18
-43 -60 -177 -69 -220 -7 -30 -6 -31 71 -66 43 -20 110 -47 148 -61 73 -26
263 -72 269 -66 2 2 6 23 9 45 4 37 2 43 -18 52 -21 10 -22 14 -14 54 6 23 12
44 14 46 2 2 43 -1 92 -7 48 -6 121 -11 161 -11 l72 0 0 -50 0 -49 -97 -3 -97
-3 -8 -39 c-6 -28 -5 -42 4 -48 19 -13 269 -2 368 17 73 14 134 28 212 51 13
4 20 -5 29 -36 7 -22 15 -40 18 -40 7 1 69 80 92 118 15 25 15 30 -2 64 l-19
37 -82 -30 c-102 -38 -280 -81 -289 -71 -4 4 -10 27 -14 52 l-7 45 88 18 c144
30 325 107 447 189 36 24 55 44 51 51 -10 18 -47 57 -53 57 -3 0 -26 -14 -51
-31z"/>
<path d="M1068 2814 l-3 -46 55 -25 c30 -14 107 -42 170 -63 l115 -39 -2 -42
c-1 -23 -6 -46 -12 -52 -6 -6 -55 6 -136 32 -70 23 -128 41 -130 39 -13 -16
-35 -71 -30 -78 9 -14 246 -88 354 -110 79 -16 277 -40 329 -40 13 0 16 -39 6
-77 -5 -20 -13 -23 -54 -23 -84 0 -291 31 -408 61 -62 16 -115 29 -117 29 -2
0 -10 -18 -16 -41 -10 -33 -10 -42 1 -49 8 -5 10 -17 6 -34 l-6 -25 490 -1
490 0 0 43 0 43 -97 -13 c-54 -7 -104 -11 -110 -8 -8 3 -13 22 -13 47 0 24 -3
67 -6 96 l-7 52 -136 1 c-75 1 -161 4 -191 7 l-55 7 1 47 c0 26 3 50 6 53 3 3
59 0 124 -6 157 -15 336 -3 502 33 50 11 57 16 93 70 22 32 37 58 34 58 -3 0
-37 -9 -75 -19 -147 -41 -273 -54 -470 -48 -239 7 -393 41 -603 133 -43 19
-82 34 -86 34 -5 0 -11 -21 -13 -46z"/>
<path d="M2135 2515 c-5 -2 -27 -6 -47 -10 -37 -6 -38 -7 -38 -52 l0 -45 58 7
c31 4 60 10 64 13 4 4 11 26 16 50 10 41 9 42 -17 41 -14 0 -30 -2 -36 -4z"/>
<path d="M1050 2390 c0 -56 15 -74 30 -34 18 47 16 66 -7 75 -22 8 -23 6 -23
-41z"/>
<path d="M1563 1825 c-95 -17 -216 -58 -281 -96 -30 -17 -52 -32 -50 -34 2 -2
44 5 93 15 50 9 111 20 136 23 l46 6 7 -45 c7 -56 3 -64 -34 -64 -24 0 -136
-21 -301 -56 -24 -5 -28 -2 -34 26 l-7 32 -64 -63 c-36 -35 -83 -91 -106 -123
-46 -66 -48 -65 65 -22 l67 26 10 -25 c21 -55 22 -73 5 -82 -15 -9 -15 -13 1
-52 10 -25 22 -40 29 -37 27 10 147 46 155 46 4 0 18 -42 30 -92 13 -51 23
-94 24 -95 1 -1 51 7 111 17 61 11 124 20 141 20 30 0 32 -2 38 -47 3 -25 4
-48 2 -50 -2 -2 -50 -11 -107 -19 -57 -8 -142 -25 -189 -38 -92 -25 -94 -28
-71 -89 9 -24 13 -26 38 -16 120 46 380 74 544 59 100 -9 266 -41 289 -55 8
-5 -10 -78 -21 -90 -4 -3 -53 4 -110 15 -280 58 -577 24 -833 -95 -120 -55
-117 -49 -63 -139 26 -42 47 -80 47 -85 0 -5 -17 -20 -37 -33 -21 -14 -62 -44
-91 -68 l-54 -42 32 -33 32 -33 71 53 c39 30 97 68 129 85 32 17 58 33 58 35
0 2 -16 40 -35 85 -19 45 -35 85 -35 90 0 13 98 51 196 75 272 69 536 50 793
-59 47 -20 85 -35 86 -33 1 1 12 17 24 34 26 38 23 46 -19 63 -33 14 -33 24
-3 82 l14 28 67 -34 c37 -19 98 -55 136 -80 49 -33 72 -43 77 -34 8 13 22 79
17 82 -49 38 -156 101 -243 142 -143 68 -294 111 -467 132 l-138 16 0 48 c0
31 5 50 15 55 9 5 16 26 18 48 l2 40 -70 3 c-38 2 -115 -2 -169 -8 -55 -5
-101 -8 -103 -6 -3 2 -12 45 -21 96 l-16 92 -35 -5 c-20 -3 -52 -9 -72 -13
-34 -6 -37 -4 -48 26 -24 71 -29 67 154 102 71 13 547 19 559 7 3 -3 3 -27 0
-52 l-7 -47 -151 6 c-83 4 -181 4 -218 0 l-68 -8 0 -43 0 -43 183 0 c163 -1
357 -19 374 -36 3 -3 2 -26 -2 -51 l-6 -47 -62 8 c-113 14 -112 14 -115 -33
-3 -37 0 -43 20 -47 13 -2 64 -12 113 -21 171 -32 375 -110 533 -205 l53 -32
-3 58 -3 58 -110 56 c-60 31 -146 69 -190 84 -44 16 -83 32 -87 35 -4 4 4 44
18 90 14 45 23 88 21 94 -2 6 -32 19 -68 27 l-64 16 3 49 c1 27 4 50 6 52 6 6
150 -33 249 -66 l87 -30 -17 29 c-9 16 -33 48 -53 70 -33 38 -43 43 -151 70
-149 37 -297 59 -454 67 l-125 6 0 48 c0 39 4 49 20 54 16 5 20 15 20 46 l0
39 -52 -1 c-29 0 -85 -7 -125 -14z"/>
<path d="M1842 1793 l3 -38 120 -12 c66 -7 142 -17 169 -23 27 -6 51 -9 53 -7
8 9 -158 78 -231 97 -113 29 -118 28 -114 -17z"/>
<path d="M2384 1295 c-7 -19 -14 -37 -14 -39 0 -6 229 -116 240 -116 4 0 0 25
-8 57 l-16 56 -83 39 c-46 21 -88 38 -94 38 -5 0 -17 -16 -25 -35z"/>
<path d="M924 1263 c-70 -36 -70 -36 -86 -94 -9 -33 -14 -59 -12 -59 2 0 49
23 104 51 108 55 108 55 76 115 -11 22 -11 22 -82 -13z"/>
<path d="M1108 1126 c-113 -46 -222 -102 -275 -142 -29 -22 -33 -30 -33 -75 0
-27 2 -49 5 -49 2 0 32 18 66 40 34 22 67 40 73 40 10 0 61 -79 54 -84 -2 -2
-43 -29 -91 -60 -64 -42 -86 -62 -83 -74 3 -10 8 -29 12 -44 3 -16 10 -28 14
-28 5 0 42 24 82 53 41 28 113 72 161 96 48 24 87 49 87 56 0 7 -14 45 -31 85
-17 40 -28 78 -25 85 2 7 29 21 58 30 29 10 57 21 61 25 9 8 -10 90 -21 90 -4
-1 -55 -20 -114 -44z"/>
<path d="M1560 635 c-81 -14 -160 -34 -173 -45 -4 -4 -1 -25 8 -47 l16 -39 92
23 c63 16 126 24 202 26 l110 2 1 -99 1 -100 76 -13 c117 -20 250 -77 336
-144 31 -25 40 -24 76 6 l30 25 -38 34 c-47 42 -175 110 -265 141 -62 21 -67
24 -64 49 2 15 7 38 12 51 9 24 9 24 62 9 75 -22 222 -94 298 -148 l64 -45 28
32 c64 74 108 135 123 170 l15 36 -53 41 c-30 22 -56 40 -59 40 -3 0 -27 -35
-54 -77 -26 -43 -49 -80 -50 -82 -2 -2 -49 20 -106 47 -57 28 -132 60 -168 72
-149 48 -361 62 -520 35z"/>
<path d="M940 574 c-25 -20 -46 -37 -48 -39 -2 -2 6 -22 18 -44 l20 -41 50 37
c28 21 50 40 50 43 0 3 -10 22 -23 42 l-22 37 -45 -35z"/>
<path d="M1570 435 c-130 -27 -256 -82 -367 -161 -34 -24 -64 -48 -67 -53 -3
-5 10 -21 29 -35 l35 -27 83 55 c102 68 207 111 322 131 48 8 92 15 96 15 5 0
9 20 9 45 l0 45 -37 -1 c-21 0 -67 -7 -103 -14z"/>
<path d="M1572 230 c-40 -10 -93 -29 -119 -40 -57 -25 -143 -79 -143 -90 0 -4
21 -15 46 -25 46 -17 46 -17 94 9 26 14 54 26 62 26 8 0 22 -22 32 -49 l18
-50 55 -7 c73 -9 272 1 285 14 13 13 -74 32 -152 32 -32 0 -61 3 -63 8 -3 4
-7 27 -8 52 l-4 45 54 3 c74 4 202 -23 284 -60 l67 -31 40 18 c22 10 39 23 37
29 -7 20 -112 76 -192 103 -111 36 -287 42 -393 13z"/>
</g>
</svg>
